<?xml version="1.0" encoding="utf-8"?>
<!-- Generator: Adobe Illustrator 26.0.3, SVG Export Plug-In . SVG Version: 6.00 Build 0)  -->
<svg version="1.1" id="Layer_1" xmlns="http://www.w3.org/2000/svg" xmlns:xlink="http://www.w3.org/1999/xlink" x="0px" y="0px"
	 viewBox="0 0 70 70" style="enable-background:new 0 0 70 70;" xml:space="preserve">
<style type="text/css">
	.st0{fill:#888888;}
	.st1{fill:#1b1b1b;}
</style>
<g>
	<path class="st0" d="M66.2,36.2c0,15.5-11.4,28.4-26.2,30.7c-1.6,0.3-3.2,0.4-4.9,0.4c-1.4,0-2.8-0.1-4.2-0.3
		c-15.1-2-26.8-15-26.8-30.8c0-17.1,13.9-31,31-31C52.3,5.1,66.2,19,66.2,36.2z"/>
	<path class="st1" d="M40,29.6v6.2h9.5l-1.4,9.1H40v22c-1.6,0.3-3.2,0.4-4.9,0.4c-1.4,0-2.8-0.1-4.2-0.3V44.8h-8.3v-9.1h8.3v-6.2
		c0-5.8,2.3-12.8,13-12.8h5.8v9.1h-5.8C41,25.9,40,27.2,40,29.6z"/>
</g>
</svg>
