<?xml version="1.0" encoding="utf-8"?>
<!-- Generator: Adobe Illustrator 26.0.2, SVG Export Plug-In . SVG Version: 6.00 Build 0)  -->
<svg version="1.1" id="Layer_1" xmlns="http://www.w3.org/2000/svg" xmlns:xlink="http://www.w3.org/1999/xlink" x="0px" y="0px"
	 viewBox="0 0 1000 1000" style="enable-background:new 0 0 1000 1000;" xml:space="preserve">
<style type="text/css">
	.st0{fill:#888888;}
</style>
<g>
	<path class="st0" d="M899.1,239.1C857.9,168.5,802,112.6,731.4,71.4C660.7,30.2,583.6,9.6,500,9.6c-83.6,0-160.7,20.6-231.4,61.8
		c-70.6,41.2-126.5,97.1-167.7,167.7c-41.2,70.6-61.8,147.8-61.8,231.4c0,100.4,29.3,190.7,87.9,271
		c58.6,80.2,134.3,135.7,227.2,166.5c10.8,2,18.8,0.6,24-4.2c5.2-4.8,7.8-10.8,7.8-18c0-1.2-0.1-12-0.3-32.4
		c-0.2-20.4-0.3-38.2-0.3-53.4l-13.8,2.4c-8.8,1.6-19.9,2.3-33.3,2.1c-13.4-0.2-27.3-1.6-41.7-4.2c-14.4-2.6-27.8-8.6-40.2-18
		c-12.4-9.4-21.2-21.7-26.4-36.9l-6-13.8c-4-9.2-10.3-19.4-18.9-30.6c-7.7-10-15.6-17.2-23.4-21.5c-2.1-1.1-4.2-2.4-6.1-3.8
		l-0.8-0.6c-2.8-2-5.4-4.4-7.8-7.2c-2.4-2.8-4.2-5.6-5.4-8.4c-1.2-2.8-0.2-5.1,3-6.9c1.8-1.1,4.5-1.8,8.1-2.2
		c4.8-0.6,9.7-0.4,14.5,0.3l6.8,1c8,1.6,17.9,6.4,29.7,14.4c11.8,8,21.5,18.4,29.1,31.2c9.2,16.4,20.3,28.9,33.3,37.5
		c13,8.6,26.1,12.9,39.3,12.9c13.2,0,24.6-1,34.2-3c9.6-2,18.6-5,27-9c3.6-26.8,13.4-47.4,29.4-61.8c-22.8-2.4-43.3-6-61.5-10.8
		c-18.2-4.8-37-12.6-56.4-23.4c-19.4-10.8-35.5-24.2-48.3-40.2c-12.8-16-23.3-37-31.5-63c-8.2-26-12.3-56-12.3-90
		c0-48.4,15.8-89.6,47.4-123.7c-14.8-36.4-13.4-77.2,4.2-122.4c11.6-3.6,28.8-0.9,51.6,8.1c22.8,9,39.5,16.7,50.1,23.1
		c10.6,6.4,19.1,11.8,25.5,16.2c37.2-10.4,75.6-15.6,115.2-15.6c39.6,0,78,5.2,115.2,15.6l22.8-14.4c15.6-9.6,34-18.4,55.2-26.4
		c21.2-8,37.4-10.2,48.6-6.6c18,45.2,19.6,86,4.8,122.4c31.6,34,47.4,75.2,47.4,123.6c0,34-4.1,64.1-12.3,90.3
		c-8.2,26.2-18.8,47.2-31.8,63c-13,15.8-29.2,29.1-48.6,39.9c-19.4,10.8-38.2,18.6-56.4,23.4c-18.2,4.8-38.7,8.4-61.5,10.8
		c20.8,18,31.2,46.4,31.2,85.2v126.6c0,7.2,2.5,13.2,7.5,18c5,4.8,12.9,6.2,23.7,4.2c92.8-30.8,168.6-86.3,227.1-166.6
		c58.6-80.2,87.9-170.5,87.9-271C960.9,386.9,940.3,309.8,899.1,239.1z"/>
	<path class="st0" d="M363,910.9c-2.8,0-5.9-0.3-9.2-0.9l-0.3-0.1c-92.8-30.8-169.5-87-228.2-167.3
		c-58.6-80.2-88.3-171.8-88.3-272.1c0-83.6,20.9-161.8,62.1-232.4c41.2-70.6,97.9-127.2,168.4-168.4C338.2,28.5,416.4,7.6,500,7.6
		c83.6,0,161.7,20.9,232.4,62.1c70.6,41.2,127.3,97.9,168.5,168.4l0,0c41.2,70.6,62.1,148.8,62.1,232.4
		c0,100.4-29.7,191.9-88.3,272.1c-58.5,80.2-135.3,136.5-228.1,167.3l-0.3,0.1c-11.4,2.1-19.9,0.5-25.4-4.7
		c-5.4-5.2-8.1-11.7-8.1-19.4V759.2c0-38-10.3-66.2-30.5-83.7l-3.4-3l4.5-0.5c22.7-2.4,43.3-6,61.2-10.8
		c17.9-4.7,36.7-12.5,55.9-23.2c19.1-10.7,35.3-23.9,48.1-39.5c12.8-15.5,23.3-36.4,31.4-62.3c8.1-25.9,12.2-56.1,12.2-89.7
		c0-47.7-15.8-88.8-46.9-122.3l-0.9-0.9l0.5-1.2c14.4-35.5,12.9-75.9-4.4-120.1c-10.7-3-26.3-0.8-46.4,6.8
		c-21.1,8-39.6,16.8-54.9,26.2L615.6,250l-0.8-0.2c-36.9-10.3-75.5-15.5-114.7-15.5c-39.2,0-77.8,5.2-114.7,15.5l-0.9,0.2l-0.8-0.5
		c-6.7-4.6-15.3-10.1-25.4-16.2c-10.7-6.4-27.4-14.1-49.8-22.9c-21.7-8.6-38.3-11.4-49.4-8.3c-17,44.2-18.3,84.5-3.9,120l0.5,1.2
		l-0.9,0.9c-31.1,33.5-46.9,74.6-46.9,122.3c0,33.6,4.1,63.7,12.2,89.4c8,25.6,18.5,46.6,31.1,62.4c12.6,15.7,28.7,29.1,47.8,39.7
		c19.2,10.7,38,18.5,55.9,23.2c17.9,4.7,38.5,8.4,61.2,10.8l4.4,0.5l-3.3,3c-15.6,14-25.2,34.4-28.8,60.6l-0.1,1.1l-1,0.5
		c-8.5,4-17.7,7.1-27.4,9.1c-9.8,2-21.4,3-34.6,3c-13.5,0-27.1-4.4-40.4-13.2c-13.2-8.8-24.6-21.6-33.9-38.2
		c-7.4-12.4-17-22.7-28.5-30.5c-11.5-7.8-21.3-12.6-29-14.1l-6.7-1c-4.9-0.7-9.6-0.8-14-0.3c-3.3,0.4-5.7,1.1-7.3,2
		c-3,1.7-2.7,3.2-2.1,4.4c1.1,2.6,2.8,5.3,5.1,7.9c2.3,2.7,4.8,5,7.5,6.9l0.8,0.5c1.8,1.3,3.7,2.5,5.9,3.6c8.1,4.4,16.1,11.8,24,22
		c8.8,11.5,15.1,21.7,19.1,31l6.1,14c5.1,14.8,13.7,26.9,25.7,36c12.1,9.2,25.3,15.1,39.4,17.6c14.2,2.6,28.1,4,41.4,4.2
		c13.3,0.2,24.3-0.5,32.9-2.1l16.1-2.8v2.4c0,15.1,0.1,33.1,0.3,53.4c0.1,10.7,0.2,18.8,0.2,24.2c0,4.9,0.1,7.7,0.1,8.2
		c0,7.8-2.8,14.3-8.4,19.5C375.5,909,369.9,910.9,363,910.9z M354.6,906.1c10,1.8,17.5,0.6,22.1-3.7c4.8-4.5,7.2-9.9,7.2-16.6
		c0-0.6,0-3.3-0.1-8.2c-0.1-5.4-0.1-13.5-0.2-24.2c-0.2-19.3-0.3-36.5-0.3-51.1l-11.5,2c-8.8,1.6-20.2,2.3-33.7,2.1
		c-13.5-0.2-27.6-1.6-42-4.2c-14.7-2.6-28.5-8.8-41.1-18.4c-12.6-9.5-21.7-22.3-27-37.8l-6-13.7c-3.9-8.9-10.1-19.1-18.6-30.2
		c-7.6-9.8-15.2-16.8-22.8-20.9c-2.3-1.3-4.4-2.5-6.3-3.9l-0.8-0.6c-2.9-2.1-5.6-4.6-8.2-7.6c-2.5-2.9-4.4-5.9-5.7-8.9
		c-0.9-2.2-1.7-6.3,3.8-9.4c2-1.2,4.9-2,8.8-2.5c4.8-0.6,9.8-0.5,15.1,0.3l6.8,1c8.3,1.6,18.5,6.6,30.5,14.7
		c12,8.2,22,18.9,29.7,31.8c9,16.1,20,28.5,32.7,36.9c12.6,8.3,25.5,12.6,38.2,12.6c12.9,0,24.3-1,33.8-2.9
		c9.1-1.9,17.7-4.7,25.6-8.4c3.5-24.9,12.5-44.7,26.8-59c-21.2-2.4-40.6-5.9-57.6-10.4c-18.3-4.8-37.4-12.7-56.9-23.6
		c-19.5-10.8-36-24.5-48.9-40.7c-12.9-16.2-23.6-37.6-31.8-63.7c-8.2-26.1-12.4-56.6-12.4-90.6c0-48.3,15.8-90,47.1-124.1
		c-14.4-36.4-12.9-77.7,4.7-122.7l0.3-0.9l0.9-0.3c12.1-3.8,29.4-1.1,52.9,8.1c22.6,8.9,39.5,16.7,50.4,23.2
		c9.8,5.9,18.2,11.2,24.8,15.8c37-10.2,75.6-15.4,114.9-15.4c39.3,0,77.9,5.2,114.9,15.4l22.1-14c15.5-9.6,34.2-18.5,55.6-26.6
		c21.5-8.1,38.3-10.3,49.9-6.6l0.9,0.3l0.3,0.9c17.9,45,19.7,86.3,5.3,122.8c31.2,34,47.1,75.8,47.1,124.1c0,34-4.2,64.6-12.4,90.9
		c-8.2,26.4-19.1,47.8-32.2,63.7c-13.1,15.9-29.6,29.5-49.2,40.4c-19.5,10.8-38.6,18.8-56.9,23.6c-16.9,4.5-36.3,8-57.5,10.4
		c19,18.4,28.6,46.6,28.6,83.7v126.6c0,6.6,2.3,12.2,6.9,16.6c4.5,4.3,11.8,5.6,21.8,3.7c92-30.6,168-86.4,226-165.8
		C929.5,660.8,959,570,959,470.5c0-82.9-20.7-160.4-61.6-230.4l0,0c-40.8-70-97-126.2-167-167c-70-40.9-147.5-61.6-230.4-61.6
		c-82.9,0-160.4,20.7-230.4,61.6c-70,40.8-126.2,97-167,167C61.7,310.1,41,387.6,41,470.5c0,99.5,29.4,190.3,87.5,269.8
		C186.7,819.8,262.7,875.6,354.6,906.1z"/>
</g>
</svg>
