<?xml version="1.0" encoding="utf-8"?>
<!-- Generator: Adobe Illustrator 26.0.2, SVG Export Plug-In . SVG Version: 6.00 Build 0)  -->
<svg version="1.1" id="Layer_1" xmlns="http://www.w3.org/2000/svg" xmlns:xlink="http://www.w3.org/1999/xlink" x="0px" y="0px"
	 viewBox="0 0 1000 1000" style="enable-background:new 0 0 1000 1000;" xml:space="preserve">
<style type="text/css">
	.st0{fill:#ffffff;}
</style>
<g>
	<g>
		<path class="st0" d="M563.4,527c0,155.1-124.9,280.9-278.9,280.9S5.5,682.1,5.5,527s124.9-280.9,278.9-280.9
			S563.4,371.9,563.4,527 M869.4,527c0,146-62.4,264.4-139.5,264.4S590.4,673,590.4,527s62.4-264.4,139.5-264.4S869.4,381,869.4,527
			 M994.5,527c0,130.8-22,236.9-49.1,236.9c-27.1,0-49-106.1-49-236.9s22-236.9,49-236.9C972.6,290.1,994.5,396.2,994.5,527"/>
	</g>
</g>
</svg>
