<?xml version="1.0" encoding="utf-8"?>
<!-- Generator: Adobe Illustrator 26.0.2, SVG Export Plug-In . SVG Version: 6.00 Build 0)  -->
<svg version="1.1" id="Layer_1" xmlns="http://www.w3.org/2000/svg" xmlns:xlink="http://www.w3.org/1999/xlink" x="0px" y="0px"
	 viewBox="0 0 1000 1000" style="enable-background:new 0 0 1000 1000;" xml:space="preserve">
<style type="text/css">
	.st0{fill:#ffffff;}
</style>
<g>
	<path class="st0" d="M16.5,803.2c411.7,249.4,881.8-55.3,866.8-500.6c37.5-27.2,71-60.8,100.1-101.9
		c-38.8,15.8-76.6,26.1-113.3,29.9c42.1-26.7,71.8-62,85.2-108.9c-36,21.7-77.9,37.5-124.7,48.3C689.3,26.9,453.5,145.9,492.5,349.2
		c-158.3-5-297.7-76.5-409.1-205.7c-52.1,99-25.4,198.6,60.4,263.6c-31.7-0.5-61.1-9.2-88.7-24.6c2.5,97.7,53.9,169.2,157.6,197.2
		c-28.7,8.5-58.3,9-88.5,3c31.4,83.4,91.6,132,185,138.1C227.3,784.9,123.4,816.6,16.5,803.2z"/>
</g>
</svg>
