<?xml version="1.0" encoding="utf-8"?>
<!-- Generator: Adobe Illustrator 26.0.2, SVG Export Plug-In . SVG Version: 6.00 Build 0)  -->
<svg version="1.1" id="Layer_1" xmlns="http://www.w3.org/2000/svg" xmlns:xlink="http://www.w3.org/1999/xlink" x="0px" y="0px"
	 viewBox="0 0 1000 1000" style="enable-background:new 0 0 1000 1000;" xml:space="preserve">
<style type="text/css">
	.st0{fill:#ffffff;}
	.st1{fill: #1b1b1b;}
</style>
<g>
	<g>
		<path class="st0" d="M990.1,431.6c-2.2-46.2-5.6-103.9-9.8-132.8c-10-76.2-55.2-120.1-139.8-127.9c-60.2-5-170.9-11.1-339.8-11.1
			c-0.2,0-0.4,0-0.6,0s-0.4,0-0.6,0c-168.9,0-279.6,6-339.8,11.1C75,178.7,29.8,222.7,19.8,298.8c-4.2,28.9-7.6,86.6-9.8,132.8
			c-2.2,45.6-2.2,91.2,0,136.8c2.2,46.2,5.6,103.9,9.8,132.8C29.8,777.3,75,821.3,159.6,829c60.2,5,170.9,11.1,339.8,11.1
			c0.2,0,0.4,0,0.6,0s0.4,0,0.6,0c168.9,0,279.6-6,339.8-11.1c84.6-7.8,129.8-51.7,139.8-127.9c4.2-28.9,7.6-86.6,9.8-132.8
			C992.2,522.8,992.2,477.2,990.1,431.6z"/>
		<polygon class="st1" points="392.9,325.3 392.9,674.3 665.4,500 		"/>
	</g>
</g>
</svg>
